<svg width="1600" height="900" viewBox="0 0 1600 900" fill="none" xmlns="http://www.w3.org/2000/svg">
  <defs>
    <linearGradient id="bg" x1="800" y1="0" x2="800" y2="900" gradientUnits="userSpaceOnUse">
      <stop stop-color="#F0C25D"/>
      <stop offset="0.4" stop-color="#C18728"/>
      <stop offset="0.7" stop-color="#5A3A12"/>
      <stop offset="1" stop-color="#0E0A08"/>
    </linearGradient>
    <radialGradient id="light" cx="0" cy="0" r="1" gradientUnits="userSpaceOnUse" gradientTransform="translate(826 228) rotate(90) scale(330 540)">
      <stop stop-color="#FFF5CE"/>
      <stop offset="0.52" stop-color="#FFE79B" stop-opacity="0.62"/>
      <stop offset="1" stop-color="#FFE79B" stop-opacity="0"/>
    </radialGradient>
  </defs>
  <rect width="1600" height="900" fill="url(#bg)"/>
  <rect width="1600" height="900" fill="url(#light)"/>
  <path d="M0 640C153 595 266 597 414 623C567 650 685 712 846 712C1021 712 1124 602 1295 590C1405 582 1506 605 1600 642V900H0V640Z" fill="#130E0A"/>
  <path d="M724 676C755 631 781 586 801 530C813 499 820 475 826 455C833 474 842 500 856 530C878 586 905 633 936 676H724Z" fill="#FFF2B9" fill-opacity="0.18"/>
  <path d="M0 761C178 718 322 725 470 752C633 781 745 837 911 837C1084 837 1202 752 1380 734C1453 727 1526 732 1600 752V900H0V761Z" fill="#080907"/>
</svg>
