<svg width="1600" height="980" viewBox="0 0 1600 980" fill="none" xmlns="http://www.w3.org/2000/svg">
  <defs>
    <linearGradient id="sky" x1="220" y1="110" x2="1260" y2="760" gradientUnits="userSpaceOnUse">
      <stop stop-color="#08111E"/>
      <stop offset="0.45" stop-color="#1B253B"/>
      <stop offset="0.7" stop-color="#5A4A44"/>
      <stop offset="1" stop-color="#F6CE86"/>
    </linearGradient>
    <radialGradient id="sunGlow" cx="0" cy="0" r="1" gradientUnits="userSpaceOnUse" gradientTransform="translate(1125 450) rotate(90) scale(330 390)">
      <stop stop-color="#FFF3D3"/>
      <stop offset="0.28" stop-color="#F8D98D"/>
      <stop offset="0.58" stop-color="#D69643" stop-opacity="0.92"/>
      <stop offset="1" stop-color="#0A1020" stop-opacity="0"/>
    </radialGradient>
    <linearGradient id="hill" x1="800" y1="492" x2="826" y2="866" gradientUnits="userSpaceOnUse">
      <stop stop-color="#35281E"/>
      <stop offset="1" stop-color="#0E121B"/>
    </linearGradient>
    <linearGradient id="path" x1="791" y1="545" x2="934" y2="910" gradientUnits="userSpaceOnUse">
      <stop stop-color="#D1A060"/>
      <stop offset="1" stop-color="#5C4330"/>
    </linearGradient>
    <linearGradient id="cross" x1="929" y1="330" x2="929" y2="618" gradientUnits="userSpaceOnUse">
      <stop stop-color="#A37C51"/>
      <stop offset="1" stop-color="#4A3323"/>
    </linearGradient>
    <linearGradient id="mountainFar" x1="1000" y1="454" x2="986" y2="721" gradientUnits="userSpaceOnUse">
      <stop stop-color="#746E80" stop-opacity="0.7"/>
      <stop offset="1" stop-color="#111827" stop-opacity="0"/>
    </linearGradient>
    <linearGradient id="river" x1="628" y1="512" x2="784" y2="756" gradientUnits="userSpaceOnUse">
      <stop stop-color="#BDE7FF" stop-opacity="0.95"/>
      <stop offset="1" stop-color="#A5D8FF" stop-opacity="0"/>
    </linearGradient>
  </defs>
  <rect width="1600" height="980" fill="url(#sky)"/>
  <rect width="1600" height="980" fill="url(#sunGlow)"/>
  <rect width="720" height="980" fill="url(#sky)"/>

  <g opacity="0.7">
    <path d="M158 348C250 264 346 260 444 338C526 403 602 406 670 352C740 296 805 300 876 370L876 560L158 560L158 348Z" fill="#0F1627"/>
    <path d="M520 368C628 286 730 286 828 368C930 452 1044 446 1170 348C1268 272 1388 266 1512 358V604H520V368Z" fill="url(#mountainFar)"/>
    <path d="M58 418C188 340 290 342 388 398C492 458 574 470 654 436C758 392 856 402 954 468V608H58V418Z" fill="#121C30" fill-opacity="0.86"/>
  </g>

  <path d="M-28 739C162 614 354 602 534 668C648 710 764 714 904 640C1058 560 1246 572 1628 732V980H-28V739Z" fill="#0A111C"/>
  <path d="M296 768C466 686 624 688 782 754C900 804 1014 808 1158 736C1300 664 1422 668 1600 742V980H296V768Z" fill="#111722"/>
  <path d="M668 540C768 584 832 648 864 734C894 814 936 864 1044 900H680C712 878 730 848 734 810C740 742 718 684 668 540Z" fill="url(#hill)"/>

  <path d="M783 566C834 648 843 740 815 840C808 864 808 888 822 920H972C918 878 903 846 909 786C915 720 876 650 783 566Z" fill="#1A1C24" fill-opacity="0.65"/>
  <path d="M761 564C830 596 882 650 915 722C943 784 978 840 1044 900H842C811 865 790 832 782 796C762 704 754 626 761 564Z" fill="url(#hill)"/>

  <path d="M819 582C848 614 857 664 842 736C825 820 820 882 840 928H936C892 882 886 836 902 770C918 702 905 636 862 594L819 582Z" fill="url(#path)" fill-opacity="0.5"/>
  <path d="M781 603C825 638 846 682 842 735C838 772 850 820 887 876C902 900 915 918 926 930H1003C972 909 938 873 901 821C874 784 865 749 871 714C878 674 869 638 842 606L781 603Z" fill="url(#path)"/>
  <path d="M832 642 857 665 841 683 866 704 848 724 875 749 857 770 882 792 865 813 891 838 872 858 899 885" stroke="#FFE2A5" stroke-opacity="0.45" stroke-width="8" stroke-linecap="round"/>

  <path d="M790 675C650 646 542 654 458 706C370 760 292 778 170 770" stroke="#F0C776" stroke-opacity="0.1" stroke-width="2"/>
  <path d="M585 612C683 598 742 590 794 610" stroke="#F0C776" stroke-opacity="0.14" stroke-width="2"/>

  <path d="M927 320H954V602H927V320Z" fill="url(#cross)"/>
  <path d="M856 397H1024V426H856V397Z" fill="url(#cross)"/>
  <path d="M926 320C926 302 955 302 955 320V602H926V320Z" fill="#C49C6B" fill-opacity="0.35"/>
  <ellipse cx="941" cy="418" rx="12" ry="144" fill="#FFF1C9" fill-opacity="0.08"/>

  <path d="M591 530C679 548 738 604 782 706" stroke="url(#river)" stroke-width="18" stroke-linecap="round"/>
  <path d="M552 551C630 566 688 615 742 725" stroke="#9AD6FF" stroke-opacity="0.35" stroke-width="6" stroke-linecap="round"/>

  <g opacity="0.72">
    <path d="M1293 214C1360 294 1394 424 1390 604C1388 688 1383 788 1417 892H1324C1354 820 1358 716 1353 632C1346 518 1320 382 1258 290L1293 214Z" fill="#171C26"/>
    <path d="M1254 276C1330 330 1383 438 1401 596C1415 718 1433 810 1478 896H1412C1384 832 1375 760 1366 676C1346 498 1297 373 1216 304L1254 276Z" fill="#262620"/>
    <path d="M1188 310C1260 338 1305 370 1360 430" stroke="#453D31" stroke-width="8" stroke-linecap="round"/>
  </g>

  <g opacity="0.85">
    <path d="M1120 417C1146 448 1167 450 1201 422" stroke="#FFE7B8" stroke-opacity="0.58" stroke-width="3" stroke-linecap="round"/>
    <path d="M1083 459C1103 481 1119 482 1142 461" stroke="#FFE7B8" stroke-opacity="0.55" stroke-width="3" stroke-linecap="round"/>
    <path d="M1167 472C1185 492 1203 494 1220 474" stroke="#FFE7B8" stroke-opacity="0.46" stroke-width="3" stroke-linecap="round"/>
  </g>

  <g opacity="0.86">
    <circle cx="1346" cy="764" r="18" fill="#F5BF7D"/>
    <circle cx="1296" cy="792" r="16" fill="#EBC5B6"/>
    <circle cx="1248" cy="764" r="15" fill="#E7B98F"/>
    <circle cx="1210" cy="798" r="14" fill="#EFD1D7"/>
    <circle cx="1168" cy="773" r="16" fill="#E8C0A4"/>
    <circle cx="1120" cy="806" r="12" fill="#DFC8B8"/>
    <circle cx="1064" cy="790" r="14" fill="#EAC0C9"/>
    <circle cx="1014" cy="820" r="12" fill="#F1CCA8"/>
    <circle cx="960" cy="794" r="10" fill="#F4D0DA"/>
    <circle cx="1378" cy="764" r="5" fill="#FFECCE"/>
    <circle cx="1326" cy="789" r="4" fill="#FFF1D6"/>
    <circle cx="1284" cy="760" r="4" fill="#FFF1D6"/>
    <circle cx="1236" cy="797" r="4" fill="#FFE8C2"/>
    <circle cx="1182" cy="774" r="4" fill="#FFE8C2"/>
    <circle cx="1141" cy="803" r="4" fill="#FFE8C2"/>
    <circle cx="1080" cy="790" r="4" fill="#FFE8C2"/>
    <circle cx="1028" cy="821" r="4" fill="#FFE8C2"/>
    <circle cx="974" cy="794" r="4" fill="#FFE8C2"/>
  </g>

  <g opacity="0.7">
    <circle cx="1264" cy="442" r="2.6" fill="#FFEAB0"/>
    <circle cx="1226" cy="504" r="2" fill="#F6D88D"/>
    <circle cx="1186" cy="540" r="2.2" fill="#F6D88D"/>
    <circle cx="1095" cy="373" r="2.8" fill="#FFF3D5"/>
    <circle cx="1038" cy="408" r="2" fill="#FFEAB0"/>
    <circle cx="980" cy="362" r="2.4" fill="#F7DB9D"/>
    <circle cx="1056" cy="490" r="2.2" fill="#FFE7B6"/>
    <circle cx="1154" cy="384" r="2.2" fill="#FFF3D5"/>
  </g>

  <g opacity="0.22">
    <path d="M1092 178 916 510" stroke="#FFEDB9" stroke-width="4"/>
    <path d="M1180 142 952 498" stroke="#FFEDB9" stroke-width="4"/>
    <path d="M1266 164 986 502" stroke="#FFEDB9" stroke-width="4"/>
    <path d="M1338 228 1026 518" stroke="#FFEDB9" stroke-width="4"/>
  </g>
</svg>
