<svg width="1600" height="980" viewBox="0 0 1600 980" fill="none" xmlns="http://www.w3.org/2000/svg">
  <defs>
    <linearGradient id="sky" x1="176" y1="118" x2="1229" y2="883" gradientUnits="userSpaceOnUse">
      <stop stop-color="#08111F"/>
      <stop offset="0.42" stop-color="#1A2338"/>
      <stop offset="0.72" stop-color="#674A32"/>
      <stop offset="1" stop-color="#F0BC68"/>
    </linearGradient>
    <radialGradient id="sun" cx="0" cy="0" r="1" gradientUnits="userSpaceOnUse" gradientTransform="translate(1128 422) rotate(115.407) scale(395.066 329.455)">
      <stop stop-color="#FFF5D5"/>
      <stop offset="0.34" stop-color="#F5C66D"/>
      <stop offset="0.72" stop-color="#A96833" stop-opacity="0.54"/>
      <stop offset="1" stop-color="#0A101B" stop-opacity="0"/>
    </radialGradient>
    <linearGradient id="ground" x1="812" y1="514" x2="843" y2="949" gradientUnits="userSpaceOnUse">
      <stop stop-color="#44311F"/>
      <stop offset="0.55" stop-color="#182030"/>
      <stop offset="1" stop-color="#09111A"/>
    </linearGradient>
    <linearGradient id="ray" x1="0" y1="0" x2="1" y2="1">
      <stop stop-color="#FFE9AD" stop-opacity="0.58"/>
      <stop offset="1" stop-color="#FFE9AD" stop-opacity="0"/>
    </linearGradient>
  </defs>
  <rect width="1600" height="980" fill="#07101A"/>
  <rect width="1600" height="980" fill="url(#sky)"/>
  <rect width="1600" height="980" fill="url(#sun)"/>
  <g opacity="0.62">
    <path d="M1028 142L1162 446" stroke="url(#ray)" stroke-width="18" stroke-linecap="round"/>
    <path d="M1118 106L1208 452" stroke="url(#ray)" stroke-width="12" stroke-linecap="round"/>
    <path d="M1194 136L1276 468" stroke="url(#ray)" stroke-width="10" stroke-linecap="round"/>
    <path d="M1248 204L1330 488" stroke="url(#ray)" stroke-width="7" stroke-linecap="round"/>
    <path d="M972 214L1110 462" stroke="url(#ray)" stroke-width="8" stroke-linecap="round"/>
  </g>
  <path d="M0 620C152 560 278 536 432 570C586 604 697 658 854 658C1030 658 1164 544 1317 546C1434 548 1510 586 1600 630V980H0V620Z" fill="#0A121B"/>
  <path d="M0 672C174 616 297 632 432 674C592 724 724 768 897 748C1077 728 1186 604 1344 610C1450 614 1518 642 1600 694V980H0V672Z" fill="#14202F"/>
  <path d="M0 744C170 712 324 736 478 796C609 846 766 886 947 864C1122 842 1254 730 1427 738C1498 742 1548 758 1600 790V980H0V744Z" fill="url(#ground)"/>
  <path d="M882 568C935 540 992 476 1037 406C1060 370 1087 346 1129 342C1168 338 1200 358 1224 398C1266 469 1309 553 1378 602C1433 642 1501 675 1600 698V980H682C724 859 783 731 882 568Z" fill="url(#ground)"/>
  <path d="M1070 565C1098 522 1132 457 1160 406C1180 368 1218 350 1252 362C1285 373 1306 404 1309 448C1316 544 1358 666 1443 744C1488 785 1541 820 1600 850V980H948C964 882 994 770 1070 565Z" fill="#291E15" fill-opacity="0.68"/>
  <path d="M1138 332L1133 566H1161L1155 332H1138Z" fill="#2D2118"/>
  <path d="M1088 410H1208V431H1088V410Z" fill="#2D2118"/>
  <path d="M1082 334H1116V352H1082V334Z" fill="#2D2118" fill-opacity="0.84"/>
  <path d="M1155 330H1189V348H1155V330Z" fill="#2D2118" fill-opacity="0.84"/>
  <path d="M1091 580C1124 558 1148 540 1162 524C1188 495 1207 484 1234 487C1268 491 1290 519 1311 558L1377 680H1041L1091 580Z" fill="#1E1713"/>
  <path d="M1007 851C1056 808 1101 762 1128 723C1166 668 1200 626 1241 606C1276 589 1308 591 1337 611L1375 635" stroke="#8F6E46" stroke-width="12" stroke-linecap="round" stroke-linejoin="round"/>
  <path d="M779 922C832 877 881 842 922 819C970 792 1020 764 1060 711C1093 667 1124 624 1171 599C1210 579 1246 579 1282 597" stroke="#C59A5C" stroke-width="18" stroke-linecap="round" stroke-linejoin="round"/>
  <path d="M790 920C852 863 904 822 949 799C987 779 1033 753 1066 715C1104 673 1135 626 1181 602" stroke="#F1D49A" stroke-width="8" stroke-linecap="round" stroke-linejoin="round"/>
  <g opacity="0.8">
    <path d="M1242 226C1247 221 1250 216 1252 210C1258 216 1264 220 1271 223" stroke="#FFF1C9" stroke-width="3" stroke-linecap="round"/>
    <path d="M1298 254C1303 249 1306 244 1308 238C1314 244 1320 248 1327 251" stroke="#FFF1C9" stroke-width="3" stroke-linecap="round"/>
    <path d="M1200 274C1205 269 1208 264 1210 258C1216 264 1222 268 1229 271" stroke="#FFF1C9" stroke-width="3" stroke-linecap="round"/>
  </g>
  <g opacity="0.78">
    <circle cx="1203" cy="596" r="4" fill="#FFE2A4"/>
    <circle cx="1279" cy="628" r="3" fill="#FFE2A4"/>
    <circle cx="1219" cy="674" r="3" fill="#FFE2A4"/>
    <circle cx="1328" cy="706" r="4" fill="#FFE2A4"/>
    <circle cx="1388" cy="648" r="3" fill="#FFE2A4"/>
  </g>
  <g opacity="0.95">
    <path d="M0 860C150 840 253 842 342 886C433 930 499 951 579 951C646 951 716 931 798 912L799 980H0V860Z" fill="#0A151E"/>
    <path d="M1236 980C1261 914 1297 875 1346 858C1395 840 1459 837 1600 860V980H1236Z" fill="#0B151E"/>
    <g fill="#E3AB69">
      <circle cx="104" cy="901" r="9"/>
      <circle cx="152" cy="878" r="7"/>
      <circle cx="204" cy="908" r="10"/>
      <circle cx="1388" cy="884" r="9"/>
      <circle cx="1455" cy="868" r="8"/>
      <circle cx="1499" cy="894" r="11"/>
      <circle cx="1330" cy="914" r="7"/>
    </g>
    <g stroke="#6C8E53" stroke-width="4" stroke-linecap="round">
      <path d="M104 901V940"/>
      <path d="M152 878V928"/>
      <path d="M204 908V952"/>
      <path d="M1388 884V936"/>
      <path d="M1455 868V930"/>
      <path d="M1499 894V948"/>
      <path d="M1330 914V954"/>
    </g>
  </g>
</svg>
