<svg width="1200" height="560" viewBox="0 0 1200 560" fill="none" xmlns="http://www.w3.org/2000/svg">
  <defs>
    <linearGradient id="arenaBg" x1="103" y1="63" x2="998" y2="534" gradientUnits="userSpaceOnUse">
      <stop stop-color="#07101B"/>
      <stop offset="0.45" stop-color="#122033"/>
      <stop offset="1" stop-color="#2C241E"/>
    </linearGradient>
    <radialGradient id="beam" cx="0" cy="0" r="1" gradientUnits="userSpaceOnUse" gradientTransform="translate(598 236) rotate(90) scale(280 86)">
      <stop stop-color="#FFF4D1"/>
      <stop offset="0.35" stop-color="#F6D680"/>
      <stop offset="1" stop-color="#F6D680" stop-opacity="0"/>
    </radialGradient>
    <linearGradient id="floor" x1="600" y1="282" x2="600" y2="560" gradientUnits="userSpaceOnUse">
      <stop stop-color="#302920"/>
      <stop offset="1" stop-color="#090E17"/>
    </linearGradient>
    <linearGradient id="monument" x1="586" y1="172" x2="610" y2="392" gradientUnits="userSpaceOnUse">
      <stop stop-color="#D7B37A"/>
      <stop offset="1" stop-color="#6A4B2D"/>
    </linearGradient>
  </defs>
  <rect width="1200" height="560" fill="url(#arenaBg)"/>
  <rect width="1200" height="560" fill="url(#beam)"/>

  <path d="M0 372C132 316 256 292 372 300C504 310 622 348 730 340C844 332 1010 278 1200 322V560H0V372Z" fill="#09111D"/>
  <path d="M104 150C158 96 220 70 292 74H912C986 70 1044 96 1096 150L1135 378C1090 324 1032 296 962 294H240C172 296 114 324 65 378L104 150Z" fill="#141F31" fill-opacity="0.9"/>

  <g opacity="0.65">
    <path d="M170 150C218 114 276 96 344 96H856C924 96 982 114 1030 150" stroke="#6B5942" stroke-width="10" stroke-linecap="round"/>
    <path d="M120 214C194 160 278 132 372 132H828C922 132 1006 160 1080 214" stroke="#5A4B3C" stroke-width="10" stroke-linecap="round"/>
    <path d="M84 280C184 218 288 186 396 186H804C912 186 1016 218 1116 280" stroke="#4A3E31" stroke-width="10" stroke-linecap="round"/>
  </g>

  <g opacity="0.5">
    <path d="M182 176V304" stroke="#746754" stroke-width="16" stroke-linecap="round"/>
    <path d="M278 140V282" stroke="#746754" stroke-width="16" stroke-linecap="round"/>
    <path d="M922 140V282" stroke="#746754" stroke-width="16" stroke-linecap="round"/>
    <path d="M1018 176V304" stroke="#746754" stroke-width="16" stroke-linecap="round"/>
    <path d="M600 120V266" stroke="#80715D" stroke-width="18" stroke-linecap="round"/>
  </g>

  <ellipse cx="600" cy="382" rx="378" ry="146" fill="url(#floor)"/>
  <ellipse cx="600" cy="400" rx="320" ry="112" stroke="#5B4B37" stroke-width="8"/>
  <ellipse cx="600" cy="404" rx="238" ry="82" stroke="#4A3E31" stroke-width="8"/>
  <ellipse cx="600" cy="410" rx="164" ry="58" stroke="#3B3128" stroke-width="8"/>

  <path d="M584 166H612V384H584V166Z" fill="url(#monument)"/>
  <path d="M532 228H664V252H532V228Z" fill="url(#monument)"/>
  <path d="M598 166 630 214H566L598 166Z" fill="#E1C18B"/>
  <ellipse cx="598" cy="386" rx="112" ry="18" fill="#F8D988" fill-opacity="0.25"/>
  <ellipse cx="598" cy="386" rx="72" ry="10" fill="#F8D988" fill-opacity="0.28"/>

  <path d="M523 456C552 428 574 406 589 392C596 386 600 386 607 392C622 406 644 428 673 456" stroke="#FFD37B" stroke-opacity="0.3" stroke-width="6" stroke-linecap="round"/>

  <g opacity="0.32">
    <path d="M568 42 586 228" stroke="#FDE7A6" stroke-width="4"/>
    <path d="M600 20 600 228" stroke="#FDE7A6" stroke-width="4"/>
    <path d="M632 42 614 228" stroke="#FDE7A6" stroke-width="4"/>
  </g>

  <g opacity="0.78">
    <circle cx="600" cy="150" r="4" fill="#FFF3D3"/>
    <circle cx="574" cy="190" r="3" fill="#F9DF99"/>
    <circle cx="626" cy="190" r="3" fill="#F9DF99"/>
    <circle cx="542" cy="258" r="2.5" fill="#A6EBFF"/>
    <circle cx="658" cy="258" r="2.5" fill="#A6EBFF"/>
    <circle cx="510" cy="324" r="2" fill="#F9DF99"/>
    <circle cx="692" cy="324" r="2" fill="#F9DF99"/>
  </g>
</svg>
