<svg width="760" height="520" viewBox="0 0 760 520" fill="none" xmlns="http://www.w3.org/2000/svg">
  <defs>
    <linearGradient id="bg" x1="380" y1="0" x2="380" y2="520" gradientUnits="userSpaceOnUse">
      <stop stop-color="#0E1827"/>
      <stop offset="1" stop-color="#07101A"/>
    </linearGradient>
    <radialGradient id="glow" cx="0" cy="0" r="1" gradientUnits="userSpaceOnUse" gradientTransform="translate(562 149) rotate(90) scale(124 150)">
      <stop stop-color="#67E8F9" stop-opacity="0.58"/>
      <stop offset="1" stop-color="#67E8F9" stop-opacity="0"/>
    </radialGradient>
    <linearGradient id="floor" x1="380" y1="309" x2="380" y2="520" gradientUnits="userSpaceOnUse">
      <stop stop-color="#162237"/>
      <stop offset="1" stop-color="#070B14"/>
    </linearGradient>
  </defs>
  <rect width="760" height="520" rx="36" fill="url(#bg)"/>
  <rect width="760" height="520" rx="36" fill="url(#glow)"/>
  <path d="M0 344C120 322 180 298 282 304C374 309 424 357 525 362C612 366 691 336 760 322V520H0V344Z" fill="url(#floor)"/>
  <circle cx="228" cy="256" r="72" fill="#12304A" fill-opacity="0.82"/>
  <circle cx="228" cy="256" r="58" fill="#0B1626"/>
  <path d="M187 256H269" stroke="#F6C35B" stroke-width="16" stroke-linecap="round"/>
  <path d="M162 228V284" stroke="#67E8F9" stroke-width="16" stroke-linecap="round"/>
  <path d="M294 228V284" stroke="#67E8F9" stroke-width="16" stroke-linecap="round"/>
  <path d="M118 240V272" stroke="#67E8F9" stroke-width="10" stroke-linecap="round"/>
  <path d="M338 240V272" stroke="#67E8F9" stroke-width="10" stroke-linecap="round"/>
  <path d="M514 126C558 174 583 214 610 294" stroke="#F6C35B" stroke-opacity="0.38" stroke-width="5" stroke-linecap="round"/>
</svg>
