<svg width="1200" height="720" viewBox="0 0 1200 720" fill="none" xmlns="http://www.w3.org/2000/svg">
  <defs>
    <linearGradient id="arenaBg" x1="600" y1="24" x2="600" y2="720" gradientUnits="userSpaceOnUse">
      <stop stop-color="#08121D"/>
      <stop offset="0.56" stop-color="#131C2B"/>
      <stop offset="1" stop-color="#050B13"/>
    </linearGradient>
    <radialGradient id="beam" cx="0" cy="0" r="1" gradientUnits="userSpaceOnUse" gradientTransform="translate(608 234) rotate(90) scale(320 134)">
      <stop stop-color="#FFF1BA"/>
      <stop offset="0.32" stop-color="#F6C76F" stop-opacity="0.95"/>
      <stop offset="1" stop-color="#F6C76F" stop-opacity="0"/>
    </radialGradient>
    <linearGradient id="floor" x1="600" y1="392" x2="600" y2="720" gradientUnits="userSpaceOnUse">
      <stop stop-color="#2F261D"/>
      <stop offset="0.38" stop-color="#151D2A"/>
      <stop offset="1" stop-color="#08111A"/>
    </linearGradient>
  </defs>
  <rect width="1200" height="720" fill="url(#arenaBg)"/>
  <rect width="1200" height="720" fill="url(#beam)"/>
  <ellipse cx="600" cy="630" rx="402" ry="96" fill="#061018"/>
  <ellipse cx="600" cy="592" rx="330" ry="78" fill="#0E1823"/>
  <ellipse cx="600" cy="552" rx="254" ry="60" fill="#17222F"/>
  <ellipse cx="600" cy="510" rx="176" ry="42" fill="#223041"/>
  <path d="M226 316C272 236 322 185 382 164C454 138 536 145 600 145C664 145 746 138 818 164C878 185 928 236 974 316" stroke="#253447" stroke-width="30" stroke-linecap="round"/>
  <path d="M200 370C248 274 308 208 382 182C468 153 548 164 600 164C652 164 732 153 818 182C892 208 952 274 1000 370" stroke="#1B2838" stroke-width="38" stroke-linecap="round"/>
  <g opacity="0.4" stroke="#32465D" stroke-width="12">
    <path d="M308 194V370"/>
    <path d="M404 166V370"/>
    <path d="M500 154V370"/>
    <path d="M700 154V370"/>
    <path d="M796 166V370"/>
    <path d="M892 194V370"/>
  </g>
  <path d="M536 312L533 514H553L548 312H536Z" fill="#2B2319"/>
  <path d="M488 384H598V403H488V384Z" fill="#2B2319"/>
  <path d="M600 280V524" stroke="#FFF1C0" stroke-opacity="0.84" stroke-width="10" stroke-linecap="round"/>
  <ellipse cx="600" cy="520" rx="112" ry="34" fill="#F0BC68" fill-opacity="0.14"/>
  <ellipse cx="600" cy="520" rx="72" ry="18" fill="#FFE3A2" fill-opacity="0.2"/>
  <path d="M260 720C310 606 392 547 506 520C560 507 626 507 694 520C808 542 888 602 940 720H260Z" fill="url(#floor)"/>
  <g stroke="#31465F" stroke-width="5" opacity="0.55">
    <path d="M326 658C424 604 510 582 600 582C690 582 776 604 874 658"/>
    <path d="M388 690C472 650 534 636 600 636C666 636 728 650 812 690"/>
    <path d="M450 720C512 696 554 690 600 690C646 690 688 696 750 720"/>
  </g>
  <g opacity="0.9">
    <circle cx="572" cy="470" r="3" fill="#FFE2A4"/>
    <circle cx="622" cy="448" r="4" fill="#FFE2A4"/>
    <circle cx="648" cy="488" r="3" fill="#8BEFFF"/>
    <circle cx="544" cy="502" r="3" fill="#8BEFFF"/>
  </g>
</svg>
