<svg width="1600" height="920" viewBox="0 0 1600 920" fill="none" xmlns="http://www.w3.org/2000/svg">
  <defs>
    <radialGradient id="glowLeft" cx="0" cy="0" r="1" gradientUnits="userSpaceOnUse" gradientTransform="translate(296 260) rotate(44) scale(300 220)">
      <stop stop-color="#55D8FF" stop-opacity="0.16"/>
      <stop offset="1" stop-color="#55D8FF" stop-opacity="0"/>
    </radialGradient>
    <radialGradient id="glowRight" cx="0" cy="0" r="1" gradientUnits="userSpaceOnUse" gradientTransform="translate(1312 248) rotate(136) scale(320 240)">
      <stop stop-color="#FFD98B" stop-opacity="0.18"/>
      <stop offset="1" stop-color="#FFD98B" stop-opacity="0"/>
    </radialGradient>
  </defs>
  <rect width="1600" height="920" fill="url(#glowLeft)"/>
  <rect width="1600" height="920" fill="url(#glowRight)"/>
  <path d="M0 154C198 128 368 194 548 186C705 180 753 120 909 113C1077 106 1173 183 1362 186C1457 188 1529 169 1600 148" stroke="white" stroke-opacity="0.06" stroke-width="2"/>
  <path d="M0 228C164 216 322 259 498 257C696 255 761 184 933 179C1102 174 1260 248 1422 251C1487 252 1546 244 1600 231" stroke="white" stroke-opacity="0.05" stroke-width="2"/>
</svg>
