<svg width="1200" height="720" viewBox="0 0 1200 720" fill="none" xmlns="http://www.w3.org/2000/svg">
  <rect width="1200" height="720" fill="#0B1520"/>
  <rect width="1200" height="720" fill="url(#a)"/>
  <path d="M0 557C164 540 282 540 397 554C562 575 670 631 840 638C1004 645 1113 610 1200 587V720H0V557Z" fill="#07101A"/>
  <path d="M241 502L343 354L441 502H241Z" fill="#133453" fill-opacity="0.7"/>
  <rect x="325" y="246" width="35" height="110" rx="10" fill="#E7BE73" fill-opacity="0.3"/>
  <path d="M796 425C833 372 879 340 949 318C922 365 894 395 852 428C834 441 818 451 796 425Z" fill="#12273E" fill-opacity="0.72"/>
  <defs>
    <linearGradient id="a" x1="600" y1="0" x2="600" y2="720" gradientUnits="userSpaceOnUse">
      <stop stop-color="#153553"/>
      <stop offset="0.58" stop-color="#102131"/>
      <stop offset="1" stop-color="#07111A"/>
    </linearGradient>
  </defs>
</svg>
